Fly_normalized_Motion_pl13
version=1
nRows=12
nColumns=43
inDegrees=yes
endheader
time		pelvis_tilt		pelvis_list		pelvis_rotation		pelvis_tx		pelvis_ty		pelvis_tz		hip_flexion_r		hip_adduction_r		hip_rotation_r		knee_angle_r		ankle_angle_r		subtalar_angle_r		mtp_angle_r		hip_flexion_l		hip_adduction_l		hip_rotation_l		knee_angle_l		ankle_angle_l		subtalar_angle_l		mtp_angle_l		lumbar_extension		lumbar_bending		lumbar_rotation		neck_flexion		neck_lateral_bending		neck_rotation		arm_flex_r		arm_add_r		arm_rot_r		elbow_flex_r		pro_sup_r		wrist_flex_r		wrist_dev_r		hand_finger_flex_r		arm_flex_l		arm_add_l		arm_rot_l		elbow_flex_l		pro_sup_l		wrist_flex_l		wrist_dev_l		hand_finger_flex_l		
0.818333		2.157093		-7.616848		88.197728		0.007127		1.556550		0.888283		40.503015		2.418849		-2.977833		-30.937333		-17.536818		1.393647		19.188452		41.811422		-8.822569		-7.715409		-34.202034		-20.057118		8.217028		24.368056		-37.389822		1.580570		0.831163		-3.192874		-5.718545		1.794470		-8.551319		-29.109882		-0.302394		56.520406		111.606202		-2.178573		3.805779		24.481922		-14.395716		-28.857380		-4.167634		71.038135		113.506102		-3.169324		-3.255639		21.568049		
0.822854		2.151825		-7.354578		88.281069		0.006546		1.542669		0.878245		39.972360		2.253823		-3.082443		-30.318303		-17.576989		1.410678		19.044162		41.190207		-8.791657		-7.931002		-33.380442		-20.373387		8.569138		24.313132		-36.988978		1.680828		0.764708		-4.620704		-5.766485		1.771624		-10.998700		-29.268417		-1.344911		56.456481		111.201749		-2.378399		3.687036		24.116725		-16.913057		-28.936164		-4.694771		70.929579		113.331039		-3.215509		-3.582368		21.397782		
0.827374		2.144801		-7.093542		88.349023		0.006064		1.528684		0.868146		39.418701		2.091209		-3.265886		-29.671485		-17.639827		1.462675		18.832563		40.530611		-8.777467		-8.143535		-32.506565		-20.704155		9.056173		24.232736		-36.585696		1.756499		0.766958		-5.981025		-5.762677		1.683665		-13.499156		-29.327161		-2.570731		56.396453		110.796556		-2.484151		3.555317		23.626820		-19.367444		-29.008041		-5.188262		70.782404		113.114621		-3.228459		-4.015380		21.144585		
0.831894		2.152790		-6.871302		88.400104		0.005636		1.514463		0.858016		38.929198		1.948334		-3.511193		-29.057112		-17.828084		1.481687		18.650891		39.891815		-8.773034		-8.330441		-31.619172		-21.063828		9.448392		24.173567		-36.116417		1.828533		0.763683		-7.428173		-5.735813		1.645602		-15.964833		-29.336939		-3.796723		56.351636		110.479427		-2.611461		3.408213		23.354352		-21.904677		-29.018900		-5.789527		70.698331		112.868027		-3.350769		-4.358113		20.953410		
0.836414		2.141607		-6.648531		88.430583		0.005206		1.500061		0.847837		38.499688		1.790054		-3.791005		-28.547576		-18.110662		1.522557		18.436835		39.238609		-8.753389		-8.494802		-30.730102		-21.435708		9.820442		24.113116		-35.634230		1.875709		0.770356		-8.870448		-5.707452		1.599026		-18.457574		-29.301114		-5.103315		56.363357		110.247286		-2.683227		3.233233		23.133696		-24.446007		-29.029085		-6.377801		70.637349		112.656886		-3.488253		-4.717454		20.749087		
0.840934		2.087695		-6.436075		88.436484		0.004700		1.485466		0.837608		38.148156		1.590371		-4.074181		-28.172325		-18.490641		1.585292		18.208525		38.576195		-8.686998		-8.641310		-29.837966		-21.789534		10.113720		24.058693		-35.132451		1.888525		0.740063		-10.332719		-5.693463		1.572526		-20.952390		-29.248242		-6.426183		56.465645		110.107154		-2.747038		3.032036		22.974480		-27.022915		-29.029299		-6.981152		70.605513		112.510304		-3.665560		-5.055827		20.555413		
0.845455		1.950046		-6.240710		88.406468		0.004063		1.470642		0.827357		37.881359		1.319399		-4.322072		-27.908714		-18.932744		1.704961		17.887419		37.894050		-8.539783		-8.836524		-28.911966		-22.141307		10.385772		23.984560		-34.598832		1.824278		0.719052		-11.780207		-5.711910		1.519799		-23.499192		-29.096192		-7.968626		56.649414		110.250921		-2.663350		2.793895		22.770295		-29.581850		-29.008737		-7.566439		70.594296		112.509686		-3.862698		-5.470088		20.312918		
0.849975		1.731117		-6.066043		88.284602		0.003407		1.455584		0.817073		37.671394		1.017425		-4.497333		-27.689070		-19.408600		1.909693		17.307080		37.183272		-8.353169		-9.132330		-27.960101		-22.427270		10.612353		23.837733		-34.040298		1.660359		0.773808		-13.202967		-5.750177		1.398171		-26.147818		-28.815482		-9.869018		56.990008		111.054618		-2.118774		2.471612		22.322505		-32.094545		-28.999955		-8.099918		70.584043		112.732650		-3.991927		-6.012542		19.924419		
0.854495		1.582636		-5.887704		88.205038		0.002722		1.440342		0.806732		37.407912		0.757336		-4.799237		-27.374299		-20.094200		2.015568		17.105518		36.492329		-8.197758		-9.343482		-27.052604		-22.619556		10.781072		23.796663		-33.472090		1.571095		0.680696		-14.643110		-5.755855		1.488105		-28.620094		-28.789068		-11.042637		57.323679		111.044433		-2.246091		2.255828		22.164273		-34.793085		-28.809444		-8.903423		70.704849		112.608664		-4.228140		-6.244377		19.837774		
0.859015		1.383045		-5.753693		88.034209		0.002313		1.424886		0.796345		37.143988		0.510685		-4.997954		-26.962341		-20.708024		2.318185		16.930815		35.780900		-8.072701		-9.767807		-26.079698		-22.834627		11.071139		23.749209		-32.867377		1.374823		0.695401		-15.975842		-5.746641		1.522840		-31.143203		-28.566498		-12.508956		57.743489		111.248518		-2.206883		2.062729		21.955556		-37.424187		-28.601244		-9.755550		70.792303		112.606850		-4.400187		-6.585200		19.746394		
0.863535		1.211608		-5.576251		87.816019		0.002026		1.409221		0.785950		36.833496		0.314495		-5.076708		-26.571463		-21.197864		2.846028		16.785821		35.048345		-8.013757		-10.271397		-25.201420		-22.990888		11.388200		23.705294		-32.324270		1.171281		0.802754		-17.231252		-5.693642		1.521851		-33.744738		-28.352403		-14.001427		58.334676		111.624943		-1.947341		1.841966		21.698597		-40.055203		-28.479588		-10.544160		70.977817		112.705177		-4.383093		-6.933313		19.632003		
0.868056		1.088280		-5.407723		87.625362		0.001668		1.393392		0.775472		36.454136		0.142579		-5.175753		-26.076200		-21.616278		3.406563		16.656204		34.344460		-7.974693		-10.737459		-24.374424		-23.118850		11.652973		23.672698		-31.763506		1.033061		0.907623		-18.518634		-5.603600		1.561567		-36.345001		-28.116435		-15.511736		58.983025		111.873973		-1.765490		1.582828		21.422411		-42.672409		-28.221161		-11.444641		71.166695		112.744064		-4.381487		-7.199347		19.464061		
